<?xml version="1.0" encoding="UTF-8" standalone="no"?>
<svg
   xmlns:dc="http://purl.org/dc/elements/1.1/"
   xmlns:cc="http://creativecommons.org/ns#"
   xmlns:rdf="http://www.w3.org/1999/02/22-rdf-syntax-ns#"
   xmlns:svg="http://www.w3.org/2000/svg"
   xmlns="http://www.w3.org/2000/svg"
   xmlns:sodipodi="http://sodipodi.sourceforge.net/DTD/sodipodi-0.dtd"
   xmlns:inkscape="http://www.inkscape.org/namespaces/inkscape"
   inkscape:version="1.0 (4035a4fb49, 2020-05-01)"
   sodipodi:docname="logo.svg"
   id="svg212"
   version="1.1"
   height="512"
   width="512"
   viewBox="0 0 64 64">
  <metadata
     id="metadata218">
    <rdf:RDF>
      <cc:Work
         rdf:about="">
        <dc:format>image/svg+xml</dc:format>
        <dc:type
           rdf:resource="http://purl.org/dc/dcmitype/StillImage" />
        <dc:title></dc:title>
      </cc:Work>
    </rdf:RDF>
  </metadata>
  <defs
     id="defs216" />
  <sodipodi:namedview
     inkscape:current-layer="svg212"
     inkscape:window-maximized="1"
     inkscape:window-y="30"
     inkscape:window-x="0"
     inkscape:cy="256"
     inkscape:cx="256"
     inkscape:zoom="1.6132812"
     showgrid="false"
     id="namedview214"
     inkscape:window-height="1050"
     inkscape:window-width="1920"
     inkscape:pageshadow="2"
     inkscape:pageopacity="0"
     guidetolerance="10"
     gridtolerance="10"
     objecttolerance="10"
     borderopacity="1"
     bordercolor="#666666"
     pagecolor="#ffffff" />
  <rect
     ry="4.4853683"
     id="rect222-3"
     width="27.992521"
     height="13.858304"
     x="16.159378"
     y="35.132229"
     style="fill:#ffe7af;fill-opacity:1;stroke-width:0.157269" />
  <rect
     id="rect222-3-7-5"
     width="22.41733"
     height="3.3966074"
     x="29.679724"
     y="35.602539"
     style="fill:#bf8423;fill-opacity:1;stroke-width:0.0696757"
     transform="matrix(0.86798813,-0.49658494,0.1440128,0.98957583,0,0)" />
  <rect
     ry="3.4823415"
     style="fill:#ffe7af;fill-opacity:1;stroke-width:0.111129"
     y="17.112473"
     x="18.720682"
     height="13.705853"
     width="14.210629"
     id="rect222" />
  <rect
     transform="matrix(0.94224242,-0.33493167,0.1798295,0.98369779,0,0)"
     style="fill:#bf8423;fill-opacity:1;stroke-width:0.0765425"
     y="33.493439"
     x="17.138973"
     height="3.0163536"
     width="30.464165"
     id="rect222-3-7" />
  <rect
     ry="2.0898485"
     y="36.765354"
     x="9.5729961"
     height="11.199791"
     width="5.099246"
     id="rect1113"
     style="fill:#339933;fill-opacity:1;stroke-width:0.0730642" />
  <path
     id="path1160"
     d="m 11.021,37.85 c 0,0 3.38552,-1.461101 6.676885,3.889331 3.291366,5.350433 -3.299811,9.478539 -0.667934,7.095453 2.631879,-2.383088 -4.612952,1.816014 -9.2188035,-0.484522 -4.6058519,-2.300536 -4.486061,-4.115783 -4.486061,-4.115783 0,0 2.863007,-3.659811 6.625674,-2.855951 C 13.713428,42.182387 6.006917,37.149163 11.021,37.85 Z"
     style="fill:#339933;stroke:#000000;stroke-width:0.125px;stroke-linecap:butt;stroke-linejoin:miter;stroke-opacity:1;fill-opacity:1" />
  <path
     id="path1162"
     d="m 19.233202,9.3254341 c 0,0 -2.001391,6.1313399 4.402968,7.0894369 6.404359,0.958098 5.83825,-8.3779319 3.419114,-9.0059065 -2.419138,-0.6279746 -3.094606,3.5302735 -3.094606,3.5302735 0,0 -3.146202,-2.1646608 -4.352055,-1.5595184 -1.205854,0.6051425 -0.37542,-0.054285 -0.375421,-0.054285 z"
     style="fill:#339933;stroke:#000000;stroke-width:0.125px;stroke-linecap:butt;stroke-linejoin:miter;stroke-opacity:1;fill-opacity:1" />
  <g
     id="Outline">
    <g
       id="g209">
      <path
         id="path191"
         d="M 61,48 H 51 a 1,1 0 0 0 0,2 h 9 v 4 H 4 v -4 h 24 a 2.981,2.981 0 0 0 2,-0.78 2.981,2.981 0 0 0 2,0.78 h 15 a 1,1 0 0 0 0,-2 H 44.816 A 2.966,2.966 0 0 0 45,47 V 37 a 3,3 0 0 0 -3,-3 h -5 a 1,1 0 0 0 0,2 h 5 a 1,1 0 0 1 1,1 v 10 a 1,1 0 0 1 -1,1 H 32 A 1,1 0 0 1 31,47 V 37 a 1,1 0 0 1 1,-1 h 1 a 1,1 0 0 0 0,-2 H 32 A 2.981,2.981 0 0 0 30,34.78 2.981,2.981 0 0 0 28,34 H 18 a 3,3 0 0 0 -3,3 v 0.287 a 8.951,8.951 0 0 0 -4.979,-1.509 1,1 0 0 0 -1,1 V 40.5 a 8.994,8.994 0 0 0 -6.728,2.618 1,1 0 0 0 0,1.414 l 2.829,2.828 a 8.673,8.673 0 0 0 0.71,0.636 H 3 a 1,1 0 0 0 -1,1 v 6 a 1,1 0 0 0 1,1 h 12 v 4 H 11 V 58 a 1,1 0 0 0 -2,0 v 3 a 1,1 0 0 0 1,1 h 6 a 1,1 0 0 0 1,-1 v -5 h 30 v 5 a 1,1 0 0 0 1,1 h 6 a 1,1 0 0 0 1,-1 v -5 h 6 a 1,1 0 0 0 1,-1 V 49 A 1,1 0 0 0 61,48 Z M 18,36 h 10 a 1,1 0 0 1 1,1 v 10 a 1,1 0 0 1 -1,1 H 19.021 V 44.778 A 8.951,8.951 0 0 0 17,39.106 V 37 a 1,1 0 0 1 1,-1 z m -6.979,1.85 a 7.01,7.01 0 0 1 6,6.928 v 2.929 a 7.011,7.011 0 0 1 -6,-6.929 z M 4.465,43.879 A 7.028,7.028 0 0 1 9.192,42.512 9,9 0 0 0 12.549,47.907 6.987,6.987 0 0 1 6.536,45.95 Z M 53,60 h -4 v -4 h 4 z" />
      <path
         id="path193"
         d="m 21,32 h 10 a 3,3 0 0 0 3,-3 v -1.617 l 8.114,-2.725 a 1.0019692,1.0019692 0 0 0 -0.637,-1.9 L 28.653,27.07 a 0.584,0.584 0 0 0 -0.059,0.02 l -4.918,1.652 -0.359,-0.987 26.072,-10.234 0.838,2.3 -4.958,1.666 a 1,1 0 1 0 0.636,1.895 l 15.413,-5.177 a 1,1 0 0 0 0.621,-1.29 l -1.71,-4.7 a 1,1 0 0 0 -1.3,-0.589 l -6.786,2.663 9.339,-5.085 A 1,1 0 0 0 61.87,7.826 l -2.5,-4.33 A 1,1 0 0 0 57.983,3.143 L 33.793,17.928 A 3,3 0 0 0 31,16 H 27.633 A 7,7 0 0 0 27.414,6.343 1,1 0 0 0 26,6.343 L 24.586,7.757 A 6.964,6.964 0 0 0 23.317,9.5 6.942,6.942 0 0 0 19,8 1,1 0 0 0 18,9 v 2 A 6.976,6.976 0 0 0 20.233,16.112 3,3 0 0 0 18,19 v 3 a 1,1 0 0 0 2,0 v -3 a 1,1 0 0 1 1,-1 h 10 a 1,1 0 0 1 1,1 v 3.2 l -10.321,4.05 a 1,1 0 0 0 -0.575,1.273 L 22.004,30 H 21 a 1,1 0 0 1 -1,-1 v -3 a 1,1 0 0 0 -2,0 v 3 a 3,3 0 0 0 3,3 z M 26,9.171 26.636,8.536 A 5.008,5.008 0 0 1 26,14.829 l -0.636,0.635 A 5.008,5.008 0 0 1 26,9.171 Z M 20,11 v -0.9 a 4.949,4.949 0 0 1 2.633,1.5 7.026,7.026 0 0 0 0.56,4.048 A 5,5 0 0 1 20,11 Z m 31.252,5.79 1.862,-0.731 0.906,2.49 -1.9,0.637 z m 8.457,-0.153 -3.792,1.274 -0.94,-2.583 3.723,-1.462 z M 52.593,11.769 51.319,9.561 53.025,8.518 54.35,10.812 Z M 58.146,5.388 59.621,7.942 56.107,9.855 54.733,7.474 Z M 34,20.146 49.611,10.6 50.836,12.722 37.154,20.172 34,21.414 Z m -2,7.909 V 29 a 1,1 0 0 1 -1,1 h -4.79 z" />
      <circle
         id="circle195"
         r="1"
         cy="40"
         cx="21" />
      <circle
         id="circle197"
         r="1"
         cy="45"
         cx="25" />
      <circle
         id="circle199"
         r="1"
         cy="41"
         cx="40" />
      <circle
         id="circle201"
         r="1"
         cy="45"
         cx="36" />
      <circle
         id="circle203"
         r="1"
         cy="23"
         cx="23" />
      <circle
         id="circle205"
         r="1"
         cy="21"
         cx="28" />
      <circle
         id="circle207"
         r="1"
         cy="39"
         cx="35" />
    </g>
  </g>
</svg>
